<svg xmlns="http://www.w3.org/2000/svg" style="display:none">
  <symbol id="icon-online-dance" viewBox="0 0 24 24" fill="none" stroke="currentColor" stroke-width="1" stroke-linecap="round" stroke-linejoin="round">
    <rect x="5.5" y="4" width="13" height="8.5" rx="1" />
    <circle cx="12" cy="7" r="1" />
    <path d="M10.5 9.5a1.5 1.5 0 0 1 3 0" />
    <path d="M3 14.5h18" />
    <path d="M7 14.5v1h10v-1" />
  </symbol>

  <symbol id="icon-wedding" viewBox="0 0 24 24" fill="none" stroke="currentColor" stroke-width="1" stroke-linecap="round" stroke-linejoin="round">
    <circle cx="8.5" cy="5.5" r="1.05" />
    <path d="M8.5 6.55v2.1" />
    <path d="M6.8 15.5 8.5 8.65 10.2 15.5" />
    <circle cx="15.5" cy="5" r="1.05" />
    <path d="M15.5 6.05v4" />
    <path d="M14.5 15.5v1.5" />
    <path d="M16.5 15.5v1.5" />
    <path d="M8.5 7.8 12 9 15.5 7.2" />
  </symbol>

  <symbol id="icon-combo-fitness" viewBox="0 0 24 24" fill="none" stroke="currentColor" stroke-width="1" stroke-linecap="round" stroke-linejoin="round">
    <rect width="20" height="14" x="2" y="3" rx="2" />
    <path d="M10 7.75a.75.75 0 0 1 1.142-.638l3.664 2.249a.75.75 0 0 1 0 1.278l-3.664 2.25a.75.75 0 0 1-1.142-.64z" fill="currentColor" stroke="none" />
    <path d="M12 17v4" />
    <path d="M8 21h8" />
  </symbol>

  <symbol id="icon-kids-teens" viewBox="0 0 24 24" fill="none" stroke="currentColor" stroke-width="1" stroke-linecap="round" stroke-linejoin="round">
    <circle cx="9" cy="6.5" r="1.2" />
    <path d="M9 7.7v2" />
    <path d="M7.5 14v2" />
    <path d="M10.5 14v2" />
    <circle cx="15.5" cy="7" r="1.1" />
    <path d="M15.5 8.1v1.8" />
    <path d="M14.2 14v2" />
    <path d="M16.8 14v2" />
    <path d="M9 8.5 12.5 9.8 15.5 8.2" />
  </symbol>
</svg>
